# xmcd
#
# Track frame offsets:
#	150
#	16553
#	33068
#	54331
#	72631
#	90241
#	102526
#	120099
#	134747
#	151067
#	170852
#	190390
#	209155
#
# Disc length: 2970 seconds
#
# Revision: 1
# Processed by: cddbd v1.5.2PL0 Copyright (c) Steve Scherf et al.
# Submitted via: audiograbber 1.83.01
#
DISCID=ad0b980d
DTITLE=Rudy Rotta - Me, My Music And My Life [CD 1)
DYEAR=2011
DGENRE=Blues
TTITLE0=Look Out Your Window
TTITLE1=Gimme Some
TTITLE2=Giorno In Piu'
TTITLE3=Lady
TTITLE4=Can't Find My Home
TTITLE5=Just Another Man
TTITLE6=Black Magic Woman
TTITLE7=Love Me Do
TTITLE8=You're Gone
TTITLE9=Dear Prudence
TTITLE10=So Di Blues (Feat. Carey Bell)
TTITLE11=My Babe (Feat. John Mayall And The Bluesbreakers)
TTITLE12=Song For Uwe 1
EXTD=
EXTT0=
EXTT1=
EXTT2=
EXTT3=
EXTT4=
EXTT5=
EXTT6=
EXTT7=
EXTT8=
EXTT9=
EXTT10=
EXTT11=
EXTT12=
PLAYORDER=
